PathFileType	4	(X/Y/Z)	s02c0201.trc
DataRate	CameraRate	NumFrames	NumMarkers	Units	OrigDataRate	OrigDataStartFrame	OrigNumFrames
200	200	4	51	mm	200	1000	2000
Frame#	Time	racr			lacr			c7			jug			rlel			rdr			llel			ldr			s2			lic			ric			lasi			rasi			rpsi			lpsi			rgt			lgt			rth1			rth2			rth3			rth4			rlfc			rmfc			rsh1			rsh2			rsh3			rsh4			rlmal			rmmal			rcal			rtoe			rmt5			rmt1			lth1			lth2			lth4			lth3			llfc			lmfc			lsh1			lsh2			lsh3			lsh4			llmal			lmmal			lcal			ltoe			lmt5			SBIKE			LBIKE			RBIKE			
		X1	Y1	Z1	X2	Y2	Z2	X3	Y3	Z3	X4	Y4	Z4	X5	Y5	Z5	X6	Y6	Z6	X7	Y7	Z7	X8	Y8	Z8	X9	Y9	Z9	X10	Y10	Z10	X11	Y11	Z11	X12	Y12	Z12	X13	Y13	Z13	X14	Y14	Z14	X15	Y15	Z15	X16	Y16	Z16	X17	Y17	Z17	X18	Y18	Z18	X19	Y19	Z19	X20	Y20	Z20	X21	Y21	Z21	X22	Y22	Z22	X23	Y23	Z23	X24	Y24	Z24	X25	Y25	Z25	X26	Y26	Z26	X27	Y27	Z27	X28	Y28	Z28	X29	Y29	Z29	X30	Y30	Z30	X31	Y31	Z31	X32	Y32	Z32	X33	Y33	Z33	X34	Y34	Z34	X35	Y35	Z35	X36	Y36	Z36	X37	Y37	Z37	X38	Y38	Z38	X39	Y39	Z39	X40	Y40	Z40	X41	Y41	Z41	X42	Y42	Z42	X43	Y43	Z43	X44	Y44	Z44	X45	Y45	Z45	X46	Y46	Z46	X47	Y47	Z47	X48	Y48	Z48	X49	Y49	Z49	X50	Y50	Z50	X51	Y51	Z51	
1000	5.0000	551.598077	1236.886283	-161.740740	559.208951	1236.518379	-483.244267	532.848947	1283.050715	-329.586093	471.777381	1153.523513	-325.400129	545.457271	995.745909	-39.810905	701.257268	884.131331	-119.566741	507.455445	984.669503	-614.932503	689.056894	888.419967	-530.239182	2.094725	1112.240258	-333.213875	145.355364	1107.937033	-476.296893	123.308385	1131.245909	-192.955083	179.990533	1077.037418	-444.988248	176.859841	1103.396641	-214.008683	30.189179	1165.035294	-294.869864	37.861758	1174.893641	-378.106508	114.057969	1065.347637	-143.806920	83.390723	1010.915692	-499.738834	195.596586	1057.917058	-147.774062	283.004587	1060.472629	-156.874375	360.451310	1032.330573	-132.446239	289.033604	1082.998069	-186.934507	492.130854	961.803784	-163.984727	479.936902	935.887537	-277.029384	457.367924	856.943744	-150.630275	419.546040	778.382463	-166.731579	351.364574	725.545642	-161.807515	430.997039	771.347375	-204.744222	265.049234	636.633788	-164.310381	281.687181	647.395257	-245.287783	180.282743	631.244747	-207.981026	411.409566	461.960368	-192.456435	312.064782	513.795415	-139.296413	343.823298	503.869562	-244.245396	168.631628	897.727258	-520.821184	223.020158	829.531658	-522.365878	255.044234	843.527681	-509.145836	234.264353	741.210811	-519.344153	277.550436	652.311984	-495.217579	282.680396	622.935927	-395.078100	260.909740	552.037290	-518.069704	273.382067	467.956178	-504.148449	238.527003	383.779533	-504.260063	293.136273	468.194483	-467.980767	217.447576	280.724025	-490.894794	230.668026	276.872540	-414.007715	146.180816	255.803793	-454.134020	406.479382	130.048847	-438.758813	304.023690	149.207652	-507.594409	-165.368680	857.824229	-316.333590	32.811607	82.151788	-515.309980	32.932153	82.277279	-115.219515	
1001	5.0050	549.708766	1237.435771	-159.642947	560.922184	1235.500208	-480.561147	532.990882	1282.586181	-327.324371	471.636181	1153.184606	-323.165821	544.775136	995.339461	-39.650621	701.145296	884.321743	-119.613053	508.508746	985.840949	-615.801904	689.050362	888.487581	-530.417554	1.892723	1113.420482	-334.916801	145.356436	1108.480962	-477.153341	122.774559	1132.907351	-193.934125	179.455280	1077.428841	-445.422228	176.397512	1105.077449	-214.801559	29.986022	1166.389911	-296.534152	37.343866	1176.306842	-379.713015	114.137144	1067.937821	-144.752943	82.376096	1011.504429	-500.579468	194.930890	1060.308530	-148.172728	282.470497	1062.624945	-156.273747	359.705711	1033.881258	-131.279337	288.801860	1085.029409	-186.584879	491.506441	964.244731	-162.876399	480.584128	938.737424	-276.406666	458.778230	860.341423	-149.388649	423.220214	780.554053	-165.800990	356.028298	726.359369	-161.246947	435.022956	773.655051	-203.801605	270.699551	634.967694	-164.113669	287.356014	645.891117	-244.977092	186.127673	626.906261	-207.809823	422.472245	465.290041	-192.501620	321.489210	513.876959	-138.979540	353.394020	505.279789	-244.060082	167.508339	898.546845	-521.431725	221.845597	830.276082	-523.281849	254.031640	844.351125	-510.425294	233.207447	741.990244	-520.093728	277.057125	653.114440	-495.575165	282.664739	624.222500	-395.105957	258.988251	553.347441	-517.984867	269.816518	468.824813	-503.855859	233.218898	385.503505	-504.016492	289.613047	468.612586	-468.163403	209.948267	283.005150	-490.512231	223.667549	278.722409	-413.291446	138.244818	259.513005	-453.532109	395.676742	128.321277	-438.747723	293.576185	149.593373	-507.320689	-165.361047	857.252427	-317.971742	32.805518	82.152965	-515.318969	32.930277	82.274419	-115.220260	
1002	5.0100	547.871180	1237.631639	-157.675601	562.616921	1234.251960	-477.801182	533.063580	1281.894093	-325.049677	471.547399	1152.557891	-321.015815	543.980576	994.774722	-39.331639	700.978555	884.519648	-119.668413	509.470341	986.841017	-616.618585	689.038836	888.522636	-530.628572	1.668664	1114.726952	-335.084757	144.287546	1109.027388	-476.839154	122.223821	1134.572939	-194.795977	178.809698	1078.092531	-446.188985	175.858452	1106.839730	-215.794346	29.725515	1167.944008	-298.107930	36.730953	1177.993828	-381.233473	113.985834	1070.453503	-145.688859	81.419483	1012.084576	-501.359326	194.204908	1062.050504	-148.625642	281.878357	1063.819020	-155.966409	358.674581	1034.235006	-130.588351	288.518471	1086.380120	-186.039422	490.139985	965.227120	-161.510445	481.078308	940.192437	-275.803128	460.015946	862.041411	-148.213038	426.269802	781.268366	-164.760268	360.012624	725.890741	-160.547267	438.400661	774.739731	-202.686479	276.038140	631.905056	-163.931425	292.410960	643.307043	-244.516534	191.419344	621.428555	-207.395430	433.293162	468.372798	-192.852268	330.681215	513.304696	-138.684593	363.426227	506.064365	-244.642073	166.763912	899.467131	-521.947509	221.382275	831.469573	-524.002436	253.472905	845.695982	-511.514322	233.069745	743.238202	-520.627415	277.336750	654.568545	-495.854687	283.532123	626.013973	-395.013981	258.076260	555.010161	-517.889142	266.656296	470.277314	-503.319879	228.357080	387.858615	-503.691526	286.628870	469.607346	-467.768371	202.442393	285.943286	-490.115004	216.602862	281.321595	-412.716413	130.329207	263.773374	-452.796389	385.010447	127.473206	-438.843842	283.096956	150.742464	-507.020906	-165.364104	857.936003	-316.117744	32.790017	82.181534	-515.326636	32.912022	82.293131	-115.230758	
1003	5.0150	546.022444	1237.527623	-155.806232	564.089024	1232.644939	-475.233809	533.078982	1281.093696	-322.970366	471.020272	1152.004752	-319.090578	543.108281	994.099673	-38.933906	700.795378	884.581229	-119.779318	510.367375	987.544183	-617.431253	688.933261	888.532408	-531.084531	1.282044	1116.003538	-336.148357	144.679797	1110.163138	-479.047973	121.571321	1136.225219	-195.702252	178.086338	1078.740980	-446.938837	175.209145	1108.549624	-216.730503	29.366079	1169.573078	-299.531838	36.193494	1179.864840	-382.613297	113.672811	1072.516349	-146.737093	80.514161	1012.758561	-502.135843	193.479309	1063.244037	-149.208759	281.179156	1063.924139	-155.876020	357.507330	1033.463644	-130.087501	288.295206	1086.816663	-185.595181	488.043505	964.754089	-160.973795	481.371399	940.245634	-275.158099	460.660853	862.040802	-147.071248	428.607625	780.583473	-163.598649	363.355763	724.097712	-159.759024	441.111088	774.078834	-201.663712	280.815448	627.722167	-163.647519	296.864791	639.642930	-243.955468	196.116555	614.459825	-206.847881	443.711248	471.175723	-192.998665	339.470265	511.965649	-138.301209	371.616674	506.137395	-243.942098	166.497166	900.743015	-522.440416	221.523778	833.009836	-524.608855	253.616535	847.524175	-512.470950	233.858736	744.901013	-520.911080	278.536305	656.411166	-496.027749	285.316153	628.206665	-394.998771	257.884833	557.037679	-517.713424	264.198383	472.058147	-502.850943	223.930797	390.728762	-503.363914	284.215627	471.016089	-467.430580	194.928903	289.507214	-489.600204	209.434914	284.561508	-412.258111	122.540828	268.611205	-451.790813	374.434425	127.521287	-439.070303	272.682911	152.626276	-506.683021	-165.338299	858.068260	-315.411438	32.785939	82.184124	-515.308736	32.902228	82.284750	-115.221041	
